<svg id="Capa_1" data-name="Capa 1" xmlns="http://www.w3.org/2000/svg" viewBox="0 0 940.12 948.67"><title>Mesa de trabajo 16</title><path d="M580.84,305.13l-32.51-54a106.3,106.3,0,0,1-92.59-180A106.29,106.29,0,0,1,606.06,221.47h0a107.06,107.06,0,0,1-35.86,23.62Zm-31-57.26,25.22,41.86-8.24-46.55,1.15-.44a103.91,103.91,0,0,0,36-23.39A103.17,103.17,0,1,0,548.83,248Z" fill="#384d63"/><path d="M267.94,535.34s-44.2,69.86-9.27,178.93l27.09-8.56s-31.36-101.22,12.12-155.4" fill="#fff"/><path d="M257.7,716.15l-.46-1.43c-18.14-56.65-14.63-102.58-8.5-131.13,6.66-31,17.48-48.33,17.93-49.06l2.54,1.61c-.11.17-11,17.7-17.57,48.23-6,27.92-9.4,72.72,8,128l24.26-7.66A297.79,297.79,0,0,1,274,648.44c-2.22-29.54-.08-70.7,22.69-99.07l2.34,1.88c-22.14,27.59-24.21,67.92-22,96.9a290,290,0,0,0,10.18,57.12l.45,1.42Z" fill="#384d63"/><path d="M779,572.84l5.54,312.32H752.16l-5.63.72-9.15,2s-81.32-.92-85-35.11c0,0,90.55,14.78,92.4-13.86s1.85-247.64,1.85-247.64Z" fill="#384d63"/><path d="M746.24,613.59C747.31,617.87,681,730.15,681,730.15S854.24,759,856.38,764.37s-1.07,26.73-1.07,26.73l.53,6.86s23,59.44-25.13,85.1c0,0,19.25-71.64-41.7-87.68L626.48,752.6l60.95-128.31,58.81-15Z" fill="#384d63"/><path d="M557.32,511.23l-3.68-5.69s-32.7-23.08-12.38-17.06,32.12,23.75,32.12,23.75l2.25,18.57,9,6.77-6.78,12-19.57-3.27s-69.58-10-60.55-16.05,31.78.66,31.78.66-47.25-15-28.44-15.72a53.36,53.36,0,0,1,31.79,9s-49.85-25.84-28.78-22.08,36.81,15.73,36.81,15.73-45.84-28.19-24.76-24.42S557.32,511.23,557.32,511.23Z" fill="#97c3eb"/><path d="M578.68,551.27l-20.6-3.44c-.12,0-15.17-2.19-30.2-5.08-31.29-6-32-9.11-32.36-10.77a2.68,2.68,0,0,1,1.42-2.93c3.6-2.4,9.09-2.95,14.57-2.7-16.78-6.41-16.44-9-16.3-10,.28-2.12,3.11-2.52,5.84-2.63a54.25,54.25,0,0,1,11,.68c-15.57-9.25-14.95-11.1-14.48-12.47.65-1.92,3.21-1.88,6.85-1.23a86.64,86.64,0,0,1,14,3.78c-9.44-7.19-9.73-9.49-9.13-11.05.85-2.23,4.09-2,7.14-1.43,13.77,2.46,26.94,9.08,34.69,13.57-19.75-14.16-18.28-17.19-17.79-18.2,1-2.05,4.06-1.62,8.36-.35,20.6,6.11,32.44,23.62,32.94,24.36l.19.3L577.05,530l9.57,7.18Zm-80-19.75c3.24,3.42,32.54,9.4,59.91,13.35L577.1,548l5.61-10-8.49-6.37-2.29-18.83c-1.6-2.26-12.94-17.48-31.1-22.86a19.72,19.72,0,0,0-4.48-.95c1.6,2.7,10.25,9.77,18.15,15.34l.24.17,8,12.33-6.25-4.35c-.2-.14-20.06-13.83-40.56-17.49a11.83,11.83,0,0,0-3.66-.27c1.16,2.59,10.64,9.73,21.22,16.69a79.45,79.45,0,0,1,8.37,5.33l-1.69,2.48s-3.28-2-7.6-4.85a92.44,92.44,0,0,0-28.68-10.68,20.69,20.69,0,0,0-2.82-.35c2.56,2.67,12.12,8.53,22.85,14.44a46.76,46.76,0,0,1,9.91,5.32l-1.59,2.53c-.06,0-4-2.08-9.16-4.91a52.17,52.17,0,0,0-21.88-4,15.89,15.89,0,0,0-2.49.26c3.17,2.63,18,8.33,31.32,12.53l-.87,2.87C528.91,532.34,507,526,498.63,531.52Z" fill="#384d63"/><path d="M740.83,585.35s-78.7,25.29-175.55-35.84l15.07-24.09s90.14,55.72,153.49,27.19" fill="#97c3eb"/><path d="M698.15,592c-2.83,0-5.77-.06-8.84-.19-29.18-1.21-74.52-9.32-124.83-41.07l-1.26-.8,16.65-26.62,1.27.79a289.45,289.45,0,0,0,52.74,24.17c27.52,9.35,67.08,17.46,99.34,2.92l1.23,2.74c-33.17,14.94-73.55,6.7-101.59-2.84a298.56,298.56,0,0,1-52-23.67L567.35,549c49.18,30.71,93.4,38.61,121.93,39.82,31.19,1.3,50.9-4.87,51.09-4.93l.92,2.86C740.56,587,724.59,592,698.15,592Z" fill="#384d63"/><path d="M162.21,573.49,156.67,885.8H189l5.62.72,9.16,2.05s81.31-.92,85-35.11c0,0-90.55,14.79-92.4-13.86S194.55,592,194.55,592Z" fill="#384d63"/><path d="M194.93,614.24c-1.07,4.27,65.23,116.55,65.23,116.55S86.93,759.66,84.79,765s1.07,26.73,1.07,26.73l-.53,6.86s-23,59.44,25.13,85.1c0,0-19.25-71.64,41.7-87.68l162.53-42.77L253.74,624.93l-58.81-15Z" fill="#384d63"/><polygon points="119.52 258.48 309.11 257.35 313.63 450.33 295.27 509.5 125.17 509.01 119.52 258.48" fill="#97c3eb"/><path d="M296.37,511l-172.67-.5L118,257l192.59-1.15,4.55,194.7Zm-169.74-3.49,167.53.48,18-57.88-4.47-191.26L121.06,260Z" fill="#384d63"/><path d="M275.48,432l-3.06-2.15c-.22-.15-22.56-15.49-48.55-5.75l-1.05-2.8c22.08-8.28,41.16.22,48.33,4.25L246.42,300.24l2.94-.58Z" fill="#384d63"/><ellipse cx="222.2" cy="354.81" rx="4.02" ry="6.49" fill="#384d63"/><ellipse cx="298.02" cy="356.58" rx="4.02" ry="6.49" fill="#384d63"/><path d="M127.38,343.5s-31.6-4.52-25.95,22.94S131.14,392,131.14,392" fill="#97c3eb"/><path d="M130.36,393.54c-4.56,0-25.19-1.43-30.4-26.8-1.65-8-.42-14.24,3.66-18.57,7.86-8.35,23.32-6.25,24-6.16l-.42,3c-.15,0-14.59-2-21.38,5.25-3.35,3.58-4.33,8.93-2.89,15.91C108.21,392,130.1,390.6,131,390.53l.23,3S130.92,393.54,130.36,393.54Z" fill="#384d63"/><path d="M242.23,459a112,112,0,0,1-34.13-5.38c-20.56-6.61-33-16.77-33.49-17.2l1.92-2.31c.12.1,12.56,10.27,32.61,16.69A108.29,108.29,0,0,0,285,447.24c-4.9-1.18-12.2-3.64-15.11-8.13l2.52-1.63c3.08,4.76,13.86,7.19,17.75,7.73l5.06.7-4.63,2.15A114,114,0,0,1,242.23,459Z" fill="#384d63"/><path d="M120.71,381.53c-3-5.76-3.5-10.08-1.34-12.82,2.55-3.25,7.9-3.19,11.35-2.74-3.22-5.81-6.8-9.1-10.67-9.78-4.86-.85-8.68,2.86-8.72,2.89L109.22,357c.2-.2,4.91-4.83,11.31-3.73,5.45.94,10.25,5.69,14.27,14.13l1.37,2.88-3.09-.79c-2.27-.57-9.23-1.6-11.36,1.11-1.33,1.71-.77,5,1.65,9.57Z" fill="#384d63"/><path d="M125.17,509V652.79l174,3.57-2.85-147.57S122.74,506.58,125.17,509Z" fill="#fff"/><path d="M300.72,657.89l-1.56,0-175.49-3.6V509.63l-.28-.27.37-1c.53-1.24.72-1.71,28.53-1.92,14.25-.11,34-.09,58.83.06,42.19.25,84.81.79,85.24.79l1.45,0Zm-174-6.57,171,3.5-2.8-144.55c-63.55-.8-157.3-1.46-168.19-.17Z" fill="#384d63"/><polygon points="172.65 509.15 236.81 597.9 292.77 508.79 172.65 509.15" fill="#fff"/><path d="M236.9,600.58l-67.18-92.92,125.77-.38Zm-61.32-89.94,61.14,84.58,53.33-84.92Z" fill="#384d63"/><ellipse cx="207.51" cy="378.75" rx="10.63" ry="29.4" transform="translate(-179.4 570.61) rotate(-87.66)" fill="#dfa0a6"/><ellipse cx="293.21" cy="376.41" rx="9.04" ry="20.15" transform="translate(-94.87 653.99) rotate(-87.66)" fill="#dfa0a6"/><ellipse cx="230.73" cy="892.17" rx="198.89" ry="7.84" fill="#384d63"/><polygon points="169.8 509.15 145.56 534.1 189.41 544.08 188.69 571.88 236.81 597.9 169.8 509.15" fill="#fff"/><path d="M242.16,602.5l-55-29.74.71-27.49L142.63,535l27.31-28.12ZM190.22,571l41.24,22.3-61.8-81.85L148.5,533.23l42.44,9.66Z" fill="#384d63"/><polygon points="241.85 600.84 274.64 586.11 270.84 569.95 298.41 544.29 292.77 508.79 238.53 597.51 241.85 600.84" fill="#fff"/><path d="M241.52,602.63l-4.89-4.89,57-93.2,6.39,40.3L272.5,570.45,276.39,587Zm-1.1-5.34,1.76,1.76,30.72-13.8-3.72-15.8,27.62-25.72-4.87-30.68Z" fill="#384d63"/><line x1="237.57" y1="510.54" x2="238.05" y2="594.66" fill="#ae4b4f"/><rect x="236.31" y="510.54" width="3" height="84.12" transform="translate(-3.12 1.35) rotate(-0.32)" fill="#384d63"/><circle cx="226.64" cy="524.8" r="3.8" fill="#384d63"/><circle cx="226.64" cy="537.8" r="3.8" fill="#384d63"/><circle cx="226.64" cy="550.8" r="3.8" fill="#384d63"/><path d="M236.6,340.27l-42.18-7.51S229.81,352.85,236.6,340.27Z" fill="#384d63"/><path d="M281.77,322.82l24.72,18.06S279.87,336.6,281.77,322.82Z" fill="#384d63"/><path d="M186.73,490.33l9.51-13.79s22.33-5.22,27.56-12.83,8.08,7.61-6.18,17.11l29.47.95s34.69-21.86,29.94-9.5-27.09,18.53-27.09,18.53L239,494.6l-9,18.54-37.54-2.38L169.15,536.9l-10.93-12.83Z" fill="#97c3eb"/><path d="M169.12,539.18l-12.87-15.11,29.29-34.66,9.79-14.19.57-.14c6-1.41,22.65-6.38,26.67-12.22,1.77-2.58,3.36-2.87,4.39-2.65a3.45,3.45,0,0,1,2.47,3c.66,3.41-1,10.33-7.58,16.21l24.83.8c8.22-5.16,26.8-16.09,31.2-12.47,1.25,1,1.43,2.72.55,5-5,12.91-27.15,19.18-28.09,19.44l-10.25,3.57-9.2,18.88-37.82-2.39Zm-8.93-15.11,9,10.55,22.63-25.4,37.27,2.36,8.86-18.19,11.52-4c.31-.08,21.76-6.15,26.18-17.65.48-1.25.32-1.65.32-1.65-1.77-1.38-14.9,4.67-28.06,13l-.39.25-34.6-1.12,3.89-2.6c6.7-4.46,9.44-10.36,9.75-14.05a4.57,4.57,0,0,0-.24-2.3,4.28,4.28,0,0,0-1.26,1.34c-5.08,7.38-24.25,12.41-27.89,13.31l-9.27,13.42Z" fill="#384d63"/><polygon points="157.74 513.14 105.47 573.97 130.18 606.29 180.55 535 157.74 513.14" fill="#fff"/><path d="M130.23,608.82l-26.7-34.9,54.11-63,24.88,23.85ZM107.4,574l22.73,29.73,48.45-68.57-20.73-19.87Z" fill="#384d63"/><path d="M816,508.37V652.15l-174,3.56,2.85-147.56S818.43,505.94,816,508.37Z" fill="#97c3eb"/><path d="M640.45,657.24l2.91-150.57,1.45,0c.43,0,43.05-.55,85.24-.79,24.79-.15,44.58-.17,58.83-.06,27.81.21,28,.67,28.53,1.92l.39.93-.3.31V653.62Zm5.85-147.61-2.79,144.55,171-3.5V509.46C803.61,508.17,709.86,508.83,646.3,509.63Z" fill="#384d63"/><path d="M780.57,256.8,671,256.14a39.61,39.61,0,0,0-39.84,38.69L627.54,449.5l18.16,59.36,168.21-.49L818.63,296A38.3,38.3,0,0,0,780.57,256.8Z" fill="#97c3eb"/><path d="M644.59,510.36,626,449.7v-.24l3.57-154.66a41.3,41.3,0,0,1,41.1-40.16H671l109.62.66A39.8,39.8,0,0,1,820.13,296l-4.75,213.88Zm-15.54-61.07,17.76,58.07,165.64-.49,4.68-210.95a36.8,36.8,0,0,0-36.57-37.62l-109.62-.66h-.23a38.28,38.28,0,0,0-38.1,37.23Z" fill="#384d63"/><path d="M665.69,431.33,691.8,299l3,.58L670,424.89c7.17-4,26.25-12.54,48.33-4.26l-1.05,2.81c-26-9.75-48.33,5.59-48.55,5.75Z" fill="#384d63"/><ellipse cx="718.97" cy="354.17" rx="4.02" ry="6.49" fill="#384d63"/><ellipse cx="643.15" cy="355.94" rx="4.02" ry="6.49" fill="#384d63"/><path d="M638.65,309.44s31.32-20,32.73-11.28S655.3,299.57,638.65,309.44Z" fill="#384d63"/><path d="M813.79,342.85s31.59-4.51,26,22.95S810,391.38,810,391.38" fill="#97c3eb"/><path d="M810.8,392.9a7.61,7.61,0,0,1-.89,0l.23-3c.92.07,22.83,1.4,28.13-24.38,1.44-7,.46-12.34-2.9-15.92-6.81-7.23-21.23-5.27-21.37-5.24l-.43-3c.66-.09,16.12-2.2,24,6.16,4.07,4.32,5.3,10.57,3.66,18.57C836,391.46,815.37,392.9,810.8,392.9Z" fill="#384d63"/><path d="M765.6,434.64s-39.41,32.67-93.47,18.9a120.17,120.17,0,0,1-20.89-7.49s14.67-2,18.81-8.4" fill="#97c3eb"/><path d="M698.67,458.39a108.89,108.89,0,0,1-26.91-3.4,122.35,122.35,0,0,1-21.15-7.58L646,445.26l5.07-.69c3.89-.54,14.67-3,17.75-7.74l2.52,1.63c-2.91,4.5-10.21,7-15.11,8.14a115.68,115.68,0,0,0,16.3,5.48c52.72,13.43,91.75-18.27,92.14-18.6l1.91,2.31C766.22,436.07,738.74,458.39,698.67,458.39Z" fill="#384d63"/><path d="M758.07,300.34s-59.43,14.68-53,5.27S735.88,303,758.07,300.34Z" fill="#384d63"/><path d="M820.46,380.89l-2.66-1.4c2.42-4.56,3-7.87,1.64-9.57-2.13-2.72-9.08-1.69-11.35-1.11l-3.1.79,1.38-2.89c4-8.43,8.81-13.18,14.27-14.12,6.41-1.11,11.11,3.53,11.31,3.73l-2.12,2.12s-3.85-3.75-8.71-2.89c-3.87.68-7.45,4-10.67,9.78,3.45-.45,8.8-.51,11.35,2.73C824,370.81,823.51,375.12,820.46,380.89Z" fill="#384d63"/><polygon points="768.51 508.5 704.36 597.26 648.4 508.15 768.51 508.5" fill="#fff"/><path d="M704.27,599.94l-58.59-93.3,125.76.37Zm-53.16-90.28,53.33,84.92L765.59,510Z" fill="#384d63"/><ellipse cx="733.65" cy="378.1" rx="29.4" ry="10.63" transform="translate(-14.84 30.3) rotate(-2.34)" fill="#dfa0a6"/><ellipse cx="647.96" cy="375.77" rx="20.15" ry="9.04" transform="translate(-14.82 26.8) rotate(-2.34)" fill="#dfa0a6"/><path d="M786.1,310H613.46v9.37h4.11V375h58V319.34h17V375h88.77V321.46l31,23.2L828,342.29ZM672.59,372h-52v-52.3h52Zm105.8,0H695.62v-52.3h82.77Z" fill="#384d63"/><ellipse cx="718.99" cy="889.39" rx="198.89" ry="7.84" fill="#384d63"/><path d="M816.41,513.72l5.22-46.57-48.47,15.68s-21.39,57-23.53,57" fill="#97c3eb"/><path d="M749.63,541.36v-3a1.26,1.26,0,0,0-.83.3c2.2-2.33,15.25-35.8,23-56.35l.26-.68L823.38,465l-5.48,48.88-3-.33,5-44.27L774.31,484c-1.13,3-5.85,15.5-10.72,27.86C752,541.36,751.05,541.36,749.63,541.36Z" fill="#384d63"/><path d="M678.73,476.43,672,454.8s48.48,10,71.29-7.6C743.25,447.2,716.75,480.23,678.73,476.43Z" fill="#384d63"/><path d="M679.8,490l-8.55-14.26s28.87,5.35,50.25-10" fill="#97c3eb"/><path d="M678.52,490.74l-10.27-17.1,3.27.6c.28.05,28.51,5,49.11-9.73l1.75,2.44c-17.71,12.69-40,11.62-48.23,10.69l6.94,11.56Z" fill="#384d63"/><path d="M113.16,341.63s-52-89.82,0-101.94S376.92,8,399.73,147s-97,156.83-141.15,139.72S142.39,262.5,155.22,284.6s.71,95.53.71,95.53-27.09-3.57-25-35.64Z" fill="#384d63"/><path d="M803.22,343.77l-15-57.74s-193.9,29.23-181.78-10.69,29.94-84.12,58.45-78.42,47.76-40.63,82-6.42,50.61-18.53,63.45.72,51.32,27.8,42.06,59.17S858.82,355.18,803.22,343.77Z" fill="#384d63"/><polygon points="801.79 392.6 787.53 440.72 708.41 509.16 661.36 507.02 636.41 475.65 647.1 514.86 684.88 549.79 727.65 527.69 762.58 507.02 773.16 482.83 813.91 469.95 815.69 392.25 801.79 392.6" fill="#384d63"/><path d="M554.86,196.35H507.34V159.66a47.58,47.58,0,1,1,47.52.43Zm-44.52-3h41.52v-35l.79-.43a44.57,44.57,0,1,0-43.08-.39l.77.43Z" fill="#384d63"/><rect x="508.69" y="199.29" width="44.75" height="7.53" fill="#384d63"/><rect x="508.69" y="209.85" width="44.75" height="7.53" fill="#384d63"/><path d="M518,220.11h26.37S530.36,232.07,518,220.11Z" fill="#384d63"/><rect x="516.82" y="144.76" width="3" height="48.79" transform="translate(-25.77 133.96) rotate(-14.37)" fill="#384d63"/><rect x="517.24" y="168.25" width="49.72" height="3" transform="translate(254.29 659.49) rotate(-76.95)" fill="#384d63"/><polygon points="533.48 153.49 531.77 144.94 525.08 152.46 521.73 144.24 516.82 148.71 514.8 146.49 522.89 139.13 526.04 146.87 533.53 138.44 534.77 144.66 539.92 134.97 541.81 146.77 538.85 147.24 538.37 144.28 533.48 153.49" fill="#384d63"/><path d="M631.62,651.86l-6.46-2.06s-39.92,2.94-20.4-5.32,39.9-2,39.9-2l13.53,12.91,11.28-.51,2.42,13.61-17.19,9.91s-60.13,36.43-57,26,25-19.67,25-19.67-46,18.44-32,5.91A53.29,53.29,0,0,1,621,677.45s-54.92,11.69-36.25,1.21,38.41-11.22,38.41-11.22-53.3,7.33-34.63-3.15S631.62,651.86,631.62,651.86Z" fill="#97c3eb"/><path d="M673.55,669.22l-18.1,10.44c-.1.06-13.11,7.93-26.56,15.24-28,15.22-30.49,13.28-31.83,12.23a2.67,2.67,0,0,1-.77-3.16c1.26-4.15,5.15-8.05,9.54-11.34-17,5.71-18.4,3.49-18.93,2.65-1.13-1.82.81-3.93,2.85-5.75a53.79,53.79,0,0,1,8.9-6.44c-17.9,2.74-18.59.92-19.1-.43-.72-1.9,1.28-3.5,4.5-5.31a86.07,86.07,0,0,1,13.25-6c-11.86.43-13.54-1.16-14.08-2.74-.76-2.27,1.91-4.12,4.61-5.64,12.2-6.85,26.58-10.09,35.42-11.55-24.25,1.61-25-1.67-25.3-2.76-.54-2.22,2.1-3.83,6.23-5.58,19.8-8.37,40.06-2.36,40.91-2.1l.35.11,13.32,12.71,12-.53Zm-74.38,35.59c4.67.58,31.11-13.41,54.75-27.74l16.31-9.4-2-11.27-10.61.47-13.73-13.09c-2.67-.73-21.1-5.29-38.54,2.08a19.21,19.21,0,0,0-4.06,2.12c3,1.07,14.12,1,23.76.33l.29,0,14,4.46-7.59.61c-.25,0-24.28,2.06-42.44,12.25a12.15,12.15,0,0,0-3,2.12c2.55,1.27,14.41.76,27-.59a77.8,77.8,0,0,1,9.85-1.19l.27,3c-.06,0-3.82.53-8.95,1.09a92.38,92.38,0,0,0-28.94,10,21.43,21.43,0,0,0-2.4,1.52c3.67.43,14.78-1.11,26.82-3.36A46,46,0,0,1,621,676l.38,3c-.07,0-4.41.94-10.19,2a52,52,0,0,0-19.41,10.83,15,15,0,0,0-1.76,1.79c4.11,0,19.22-5,32.15-10.21l1.15,2.77C623.08,686.21,602.13,695.22,599.17,704.81Z" fill="#384d63"/><path d="M801.27,582.6s-25.5,78.57-131.84,98l-10.75-31.15s98-19.08,111.9-89.15" fill="#97c3eb"/><path d="M668.44,682.3l-11.74-34,1.7-.33a213.44,213.44,0,0,0,50.4-18.2c23.62-12.19,53.26-34.19,60.31-69.77l2.94.58c-5.76,29.11-27.18,54-61.94,71.89a219,219,0,0,1-49.46,18.08l9.78,28.33c53.68-10.11,85.93-35.7,103.58-55.46,19.28-21.59,25.77-41.1,25.84-41.29l2.85.93c-.26.81-6.7,20.19-26.35,42.24-18.1,20.31-51.3,46.65-106.65,56.76Z" fill="#384d63"/></svg>